# xmcd CD database file
#
# Track frame offsets:
#	182
#	17097
#	35100
#	52527
#	71300
#	96382
#	119670
#	144267
#	163900
#	193207
#	210290
#	230135
#	255192
#	273780
#
# Disc length: 3931 seconds
#
# Revision: 2
# Processed by: cddbd v1.4PL0 Copyright (c) Steve Scherf et al.
# Submitted via: CDex 1.40Beta9
#
DISCID=c00f590e
DTITLE=Oscar D'Leon - La Leyenda Viva
DYEAR=1992
DGENRE=Latin
TTITLE0=Lloraras
TTITLE1=Taboga
TTITLE2=Sigue tu camino
TTITLE3=Juancito Trucupey
TTITLE4=Mata Siguaraya
TTITLE5=El baile del suavecito
TTITLE6=Juanita Morell
TTITLE7=De ti enamorado
TTITLE8=Yo quisiera saber
TTITLE9=Pa'salinas
TTITLE10=Los Tamalitos de Olga
TTITLE11=Bravo de verdad
TTITLE12=Esposa
TTITLE13=Detalles
EXTD=YEAR: 1992 ID3G: 86
EXTT0=
EXTT1=
EXTT2=
EXTT3=
EXTT4=
EXTT5=
EXTT6=
EXTT7=
EXTT8=
EXTT9=
EXTT10=
EXTT11=
EXTT12=
EXTT13=
PLAYORDER=
